<svg width="838" height="229" viewBox="0 0 838 229" fill="none" xmlns="http://www.w3.org/2000/svg">
<path d="M87.5781 47.3281L125.312 132.875H115.234L105.859 110.844H61.0938L51.7188 132.875H41.4062L78.9062 47.3281H87.5781ZM102.344 102.641L83.3594 58.8125L64.6094 102.641H102.344ZM170.312 71.7031L170.078 80.6094C168.438 80.1406 166.094 79.6719 163.75 79.6719C157.891 79.6719 153.672 81.5469 150.625 85.2969C148.047 88.8125 146.406 93.2656 146.406 98.4219V132.875H136.797V89.5156C136.797 83.1875 136.328 77.5625 135.859 72.4062H145L145.938 83.6562C148.984 75.4531 156.25 71 164.922 71C166.797 71 168.672 71.2344 170.312 71.7031ZM218.359 72.4062V80.1406H201.016V113.188C201.016 122.094 205 125.375 211.562 125.375C213.906 125.375 216.016 124.906 218.125 124.203V132.406C215.547 133.344 212.734 133.812 209.688 133.812C198.203 133.812 191.406 127.016 191.406 114.594V80.1406H179.688V72.4062H191.406V56.9375L201.016 53.6562V72.4062H218.359ZM318.132 77L327.132 85.76L309.252 103.64L326.892 121.4L318.132 130.28L300.252 112.64L282.612 130.16L273.852 121.28L291.252 103.64L273.732 86L282.612 77L300.252 94.52L318.132 77ZM381.719 123.031L385.234 115.531C393.906 122.562 402.109 125.375 413.594 125.375C427.422 125.375 435.391 119.75 435.156 110.141C434.922 101 427.656 98.8906 413.594 95.6094C407.031 93.9688 401.641 92.5625 397.422 90.9219C388.984 87.4062 383.125 81.3125 383.125 71.2344C383.125 56.4688 395.547 46.3906 414.297 46.3906C426.25 46.3906 436.797 50.1406 443.828 57.1719L439.844 64.9062C431.875 58.1094 423.906 54.8281 414.297 54.8281C400.938 54.8281 392.969 60.9219 392.969 70.7656C392.969 79.4375 399.531 82.9531 413.125 86.2344C420.391 87.875 426.016 89.75 430.234 91.1562C438.906 93.9688 445 99.8281 445 109.672C445 124.203 432.812 133.812 413.594 133.812C400.234 133.812 389.453 130.297 381.719 123.031ZM456.719 102.641C456.719 83.8906 468.203 71 486.016 71C494.219 71 502.422 74.0469 507.344 78.9688L504.062 86.2344C497.969 81.3125 492.344 79.2031 486.484 79.2031C474.062 79.2031 466.797 87.875 466.797 102.641C466.797 117.172 474.062 125.609 486.484 125.609C492.344 125.609 497.969 123.5 504.062 118.812L507.344 125.844C502.188 130.766 493.75 133.812 485.547 133.812C467.969 133.812 456.719 121.391 456.719 102.641ZM533.359 57.875H521.641V46.8594H533.359V57.875ZM532.188 72.4062V132.875H522.578V72.4062H532.188ZM601.562 100.531V102.406H557.5C557.5 117.641 564.531 125.609 577.891 125.609C584.922 125.609 591.484 123.266 597.344 118.578L600.625 125.609C595.234 130.531 586.328 133.812 577.891 133.812C558.906 133.812 547.656 121.859 547.656 102.406C547.656 83.8906 559.375 71 576.016 71C591.953 71 601.562 82.25 601.562 100.531ZM557.734 96.0781H592.891C591.953 84.5938 586.094 78.7344 576.016 78.7344C565.938 78.7344 559.609 85.0625 557.734 96.0781ZM668.594 94.9062V132.875H658.984V95.375C658.984 84.3594 654.531 79.2031 644.922 79.2031C633.906 79.2031 626.406 86.7031 626.406 98.4219V132.875H616.797V89.5156C616.797 83.1875 616.328 77.5625 615.859 72.4062H625L625.938 83.4219C629.688 75.4531 637.422 71 646.797 71C661.328 71 668.594 78.9688 668.594 94.9062ZM682.891 102.641C682.891 83.8906 694.375 71 712.188 71C720.391 71 728.594 74.0469 733.516 78.9688L730.234 86.2344C724.141 81.3125 718.516 79.2031 712.656 79.2031C700.234 79.2031 692.969 87.875 692.969 102.641C692.969 117.172 700.234 125.609 712.656 125.609C718.516 125.609 724.141 123.5 730.234 118.812L733.516 125.844C728.359 130.766 719.922 133.812 711.719 133.812C694.141 133.812 682.891 121.391 682.891 102.641ZM799.141 100.531V102.406H755.078C755.078 117.641 762.109 125.609 775.469 125.609C782.5 125.609 789.062 123.266 794.922 118.578L798.203 125.609C792.812 130.531 783.906 133.812 775.469 133.812C756.484 133.812 745.234 121.859 745.234 102.406C745.234 83.8906 756.953 71 773.594 71C789.531 71 799.141 82.25 799.141 100.531ZM755.312 96.0781H790.469C789.531 84.5938 783.672 78.7344 773.594 78.7344C763.516 78.7344 757.188 85.0625 755.312 96.0781Z" fill="black"/>
<path d="M695.047 174.398L710.516 195.07V174.398H713.328V200.062H711.078L695.539 179.461V200.062H692.797V174.398H695.047ZM735.828 197.602V200.062H719.656V174.398H735.828V176.859H722.609V185.789H735.125V188.32H722.609V197.602H735.828ZM760.227 174.469L767.539 195.914L774.852 174.398H777.805L768.805 200.062H766.344L759.031 179.109L751.648 200.062H749.188L740.188 174.398H743.211L750.453 195.844L757.906 174.398L760.227 174.469ZM780.758 197.109L781.812 194.859C784.414 196.969 786.875 197.812 790.32 197.812C794.469 197.812 796.859 196.125 796.789 193.242C796.719 190.5 794.539 189.867 790.32 188.883C788.352 188.391 786.734 187.969 785.469 187.477C782.938 186.422 781.18 184.594 781.18 181.57C781.18 177.141 784.906 174.117 790.531 174.117C794.117 174.117 797.281 175.242 799.391 177.352L798.195 179.672C795.805 177.633 793.414 176.648 790.531 176.648C786.523 176.648 784.133 178.477 784.133 181.43C784.133 184.031 786.102 185.086 790.18 186.07C792.359 186.562 794.047 187.125 795.312 187.547C797.914 188.391 799.742 190.148 799.742 193.102C799.742 197.461 796.086 200.344 790.32 200.344C786.312 200.344 783.078 199.289 780.758 197.109Z" fill="#FF0000"/>
</svg>
