<svg width="1449" height="229" viewBox="0 0 1449 229" fill="none" xmlns="http://www.w3.org/2000/svg">
<path d="M129.578 40.3281L167.312 125.875H157.234L147.859 103.844H103.094L93.7188 125.875H83.4062L120.906 40.3281H129.578ZM144.344 95.6406L125.359 51.8125L106.609 95.6406H144.344ZM212.312 64.7031L212.078 73.6094C210.438 73.1406 208.094 72.6719 205.75 72.6719C199.891 72.6719 195.672 74.5469 192.625 78.2969C190.047 81.8125 188.406 86.2656 188.406 91.4219V125.875H178.797V82.5156C178.797 76.1875 178.328 70.5625 177.859 65.4062H187L187.938 76.6562C190.984 68.4531 198.25 64 206.922 64C208.797 64 210.672 64.2344 212.312 64.7031ZM260.359 65.4062V73.1406H243.016V106.188C243.016 115.094 247 118.375 253.562 118.375C255.906 118.375 258.016 117.906 260.125 117.203V125.406C257.547 126.344 254.734 126.812 251.688 126.812C240.203 126.812 233.406 120.016 233.406 107.594V73.1406H221.688V65.4062H233.406V49.9375L243.016 46.6562V65.4062H260.359ZM360.132 70L369.132 78.76L351.252 96.64L368.892 114.4L360.132 123.28L342.252 105.64L324.612 123.16L315.852 114.28L333.252 96.64L315.732 79L324.612 70L342.252 87.52L360.132 70ZM423.719 116.031L427.234 108.531C435.906 115.562 444.109 118.375 455.594 118.375C469.422 118.375 477.391 112.75 477.156 103.141C476.922 94 469.656 91.8906 455.594 88.6094C449.031 86.9688 443.641 85.5625 439.422 83.9219C430.984 80.4062 425.125 74.3125 425.125 64.2344C425.125 49.4688 437.547 39.3906 456.297 39.3906C468.25 39.3906 478.797 43.1406 485.828 50.1719L481.844 57.9062C473.875 51.1094 465.906 47.8281 456.297 47.8281C442.938 47.8281 434.969 53.9219 434.969 63.7656C434.969 72.4375 441.531 75.9531 455.125 79.2344C462.391 80.875 468.016 82.75 472.234 84.1562C480.906 86.9688 487 92.8281 487 102.672C487 117.203 474.812 126.812 455.594 126.812C442.234 126.812 431.453 123.297 423.719 116.031ZM498.719 95.6406C498.719 76.8906 510.203 64 528.016 64C536.219 64 544.422 67.0469 549.344 71.9688L546.062 79.2344C539.969 74.3125 534.344 72.2031 528.484 72.2031C516.062 72.2031 508.797 80.875 508.797 95.6406C508.797 110.172 516.062 118.609 528.484 118.609C534.344 118.609 539.969 116.5 546.062 111.812L549.344 118.844C544.188 123.766 535.75 126.812 527.547 126.812C509.969 126.812 498.719 114.391 498.719 95.6406ZM575.359 50.875H563.641V39.8594H575.359V50.875ZM574.188 65.4062V125.875H564.578V65.4062H574.188ZM643.562 93.5312V95.4062H599.5C599.5 110.641 606.531 118.609 619.891 118.609C626.922 118.609 633.484 116.266 639.344 111.578L642.625 118.609C637.234 123.531 628.328 126.812 619.891 126.812C600.906 126.812 589.656 114.859 589.656 95.4062C589.656 76.8906 601.375 64 618.016 64C633.953 64 643.562 75.25 643.562 93.5312ZM599.734 89.0781H634.891C633.953 77.5938 628.094 71.7344 618.016 71.7344C607.938 71.7344 601.609 78.0625 599.734 89.0781ZM710.594 87.9062V125.875H700.984V88.375C700.984 77.3594 696.531 72.2031 686.922 72.2031C675.906 72.2031 668.406 79.7031 668.406 91.4219V125.875H658.797V82.5156C658.797 76.1875 658.328 70.5625 657.859 65.4062H667L667.938 76.4219C671.688 68.4531 679.422 64 688.797 64C703.328 64 710.594 71.9688 710.594 87.9062ZM724.891 95.6406C724.891 76.8906 736.375 64 754.188 64C762.391 64 770.594 67.0469 775.516 71.9688L772.234 79.2344C766.141 74.3125 760.516 72.2031 754.656 72.2031C742.234 72.2031 734.969 80.875 734.969 95.6406C734.969 110.172 742.234 118.609 754.656 118.609C760.516 118.609 766.141 116.5 772.234 111.812L775.516 118.844C770.359 123.766 761.922 126.812 753.719 126.812C736.141 126.812 724.891 114.391 724.891 95.6406ZM841.141 93.5312V95.4062H797.078C797.078 110.641 804.109 118.609 817.469 118.609C824.5 118.609 831.062 116.266 836.922 111.578L840.203 118.609C834.812 123.531 825.906 126.812 817.469 126.812C798.484 126.812 787.234 114.859 787.234 95.4062C787.234 76.8906 798.953 64 815.594 64C831.531 64 841.141 75.25 841.141 93.5312ZM797.312 89.0781H832.469C831.531 77.5938 825.672 71.7344 815.594 71.7344C805.516 71.7344 799.188 78.0625 797.312 89.0781Z" fill="black"/>
<path d="M555.219 167.398V193.062H552.266V167.398H555.219ZM563.797 167.398L579.266 188.07V167.398H582.078V193.062H579.828L564.289 172.461V193.062H561.547V167.398H563.797ZM597.617 169.93V193.062H594.594V169.93H585.664V167.398H606.547V169.93H597.617ZM626.305 190.602V193.062H610.133V167.398H626.305V169.859H613.086V178.789H625.602V181.32H613.086V190.602H626.305ZM649.508 184.414L652.742 193.062H649.648L646.484 184.555C645.711 182.445 644.445 181.883 641.984 181.883H635.586V193.062H632.633V167.398H642.828C648.312 167.398 651.406 169.93 651.406 174.57C651.406 177.875 649.578 180.266 646.273 181.25C647.75 181.461 648.805 182.445 649.508 184.414ZM635.586 169.859V179.422H642.547C646.484 179.422 648.453 177.805 648.453 174.57C648.453 171.406 646.625 169.859 642.547 169.859H635.586ZM661.32 167.398L676.789 188.07V167.398H679.602V193.062H677.352L661.812 172.461V193.062H659.07V167.398H661.32ZM697.25 167.398L708.57 193.062H705.547L702.734 186.453H689.305L686.492 193.062H683.398L694.648 167.398H697.25ZM701.68 183.992L695.984 170.844L690.359 183.992H701.68ZM721.578 169.93V193.062H718.555V169.93H709.625V167.398H730.508V169.93H721.578ZM737.047 167.398V193.062H734.094V167.398H737.047ZM742.461 180.266C742.461 172.18 746.891 167.117 754.133 167.117C761.375 167.117 765.805 172.18 765.805 180.195C765.805 188.281 761.234 193.344 754.133 193.344C746.961 193.344 742.461 188.281 742.461 180.266ZM762.711 180.195C762.711 173.445 759.547 169.648 754.133 169.648C748.648 169.648 745.484 173.445 745.484 180.195C745.484 186.945 748.648 190.812 754.133 190.812C759.547 190.812 762.711 186.945 762.711 180.195ZM773.469 167.398L788.938 188.07V167.398H791.75V193.062H789.5L773.961 172.461V193.062H771.219V167.398H773.469ZM809.398 167.398L820.719 193.062H817.695L814.883 186.453H801.453L798.641 193.062H795.547L806.797 167.398H809.398ZM813.828 183.992L808.133 170.844L802.508 183.992H813.828ZM840.336 190.531V193.062H824.516V167.398H827.469V190.531H840.336Z" fill="black"/>
<path d="M945 0V229" stroke="black" stroke-width="2"/>
<path d="M1061.05 61.3281L1112.61 130.234V61.3281H1121.98V146.875H1114.48L1062.69 78.2031V146.875H1053.55V61.3281H1061.05ZM1192.3 114.531V116.406H1148.23C1148.23 131.641 1155.27 139.609 1168.62 139.609C1175.66 139.609 1182.22 137.266 1188.08 132.578L1191.36 139.609C1185.97 144.531 1177.06 147.812 1168.62 147.812C1149.64 147.812 1138.39 135.859 1138.39 116.406C1138.39 97.8906 1150.11 85 1166.75 85C1182.69 85 1192.3 96.25 1192.3 114.531ZM1148.47 110.078H1183.62C1182.69 98.5938 1176.83 92.7344 1166.75 92.7344C1156.67 92.7344 1150.34 99.0625 1148.47 110.078ZM1254.88 86.4062L1272.22 135.391L1289.56 86.4062H1299.17L1276.91 146.875H1267.53L1250.19 99.7656L1233.08 146.875H1223.7L1201.44 86.4062H1211.52L1228.62 135.156L1246.2 86.4062H1254.88ZM1308.08 139.844L1311.36 132.812C1317.92 137.969 1324.25 139.844 1332.69 139.844C1341.59 139.844 1346.52 136.562 1346.52 130.703C1346.52 126.016 1343.47 123.438 1336.2 121.562L1325.89 119.219C1315.81 116.875 1310.19 111.016 1310.19 103.047C1310.19 92.5 1319.33 85 1333.39 85C1341.83 85 1349.56 87.8125 1354.72 92.9688L1351.44 100C1345.81 95.3125 1339.72 92.9688 1333.39 92.9688C1324.72 92.9688 1319.8 96.4844 1319.8 102.344C1319.8 107.266 1322.61 110.078 1329.17 111.484L1339.25 114.062C1350.5 116.875 1355.89 122.031 1355.89 130.469C1355.89 141.016 1346.75 147.812 1332.22 147.812C1321.91 147.812 1313.94 145 1308.08 139.844Z" fill="black"/>
</svg>
